<svg width="48" height="48" viewBox="0 0 48 48" fill="none" xmlns="http://www.w3.org/2000/svg">
<g filter="url(#filter0_d_2_590)">
<circle cx="24" cy="20" r="20" fill="#F0F0F6"/>
<g clip-path="url(#clip0_2_590)">
<path d="M32.5 15.287V15.5H27V11H27.2603C27.5338 11 27.7962 11.0889 27.9896 11.2471L32.198 14.6904C32.3913 14.8486 32.5 15.0632 32.5 15.287ZM26.6562 16.625C26.0891 16.625 25.625 16.2453 25.625 15.7812V11H17.0312C16.4617 11 16 11.3778 16 11.8438V28.1562C16 28.6222 16.4617 29 17.0312 29H31.4688C32.0383 29 32.5 28.6222 32.5 28.1562V16.625H26.6562ZM21.294 25.0803C21.2732 25.0984 21.2482 25.1131 21.2204 25.1234C21.1926 25.1337 21.1627 25.1394 21.1322 25.1402C21.1018 25.141 21.0714 25.1368 21.0429 25.1281C21.0144 25.1193 20.9883 25.106 20.966 25.0889L18.1788 22.951C18.1557 22.9332 18.1372 22.9118 18.1246 22.888C18.112 22.8641 18.1055 22.8384 18.1055 22.8125C18.1055 22.7865 18.112 22.7608 18.1246 22.737C18.1372 22.7132 18.1557 22.6917 18.1788 22.674L20.966 20.5361C20.9883 20.519 21.0144 20.5057 21.0429 20.4969C21.0714 20.4881 21.1018 20.484 21.1322 20.4848C21.1627 20.4856 21.1926 20.4913 21.2204 20.5016C21.2482 20.5119 21.2732 20.5265 21.294 20.5447L22.1353 21.2789C22.1566 21.2975 22.173 21.3194 22.1838 21.3432C22.1945 21.3671 22.1993 21.3925 22.1978 21.4179C22.1963 21.4433 22.1886 21.4682 22.1751 21.4911C22.1616 21.514 22.1426 21.5345 22.1193 21.5513L20.3678 22.8125L22.1193 24.0737C22.1426 24.0905 22.1616 24.111 22.1751 24.1339C22.1886 24.1568 22.1963 24.1817 22.1978 24.2071C22.1993 24.2325 22.1945 24.2579 22.1838 24.2818C22.173 24.3056 22.1566 24.3275 22.1353 24.3461L21.294 25.0803ZM23.4981 26.8549L22.3185 26.5747C22.2594 26.5607 22.2095 26.528 22.1799 26.4839C22.1502 26.4398 22.1432 26.3878 22.1603 26.3394L24.8003 18.8995C24.8175 18.8511 24.8574 18.8103 24.9113 18.7861C24.9653 18.7618 25.0287 18.756 25.0878 18.7701L26.2674 19.0503C26.2967 19.0572 26.324 19.0688 26.3478 19.0844C26.3716 19.1 26.3914 19.1192 26.406 19.1411C26.4207 19.1629 26.43 19.1869 26.4334 19.2117C26.4367 19.2365 26.434 19.2616 26.4256 19.2855L23.7856 26.7255C23.7771 26.7494 23.7629 26.7718 23.7439 26.7913C23.7248 26.8107 23.7013 26.8269 23.6746 26.8389C23.6479 26.851 23.6186 26.8586 23.5883 26.8613C23.558 26.864 23.5274 26.8619 23.4981 26.8549ZM30.4071 22.951L27.6199 25.0889C27.5977 25.106 27.5716 25.1193 27.5431 25.1281C27.5145 25.1368 27.4842 25.141 27.4537 25.1402C27.4233 25.1394 27.3933 25.1337 27.3655 25.1234C27.3378 25.1131 27.3128 25.0984 27.2919 25.0803L26.4506 24.346C26.4293 24.3275 26.4129 24.3056 26.4021 24.2817C26.3914 24.2579 26.3866 24.2325 26.3881 24.2071C26.3896 24.1817 26.3973 24.1568 26.4108 24.1338C26.4243 24.1109 26.4433 24.0905 26.4666 24.0737L28.2182 22.8125L26.4666 21.5513C26.4433 21.5345 26.4243 21.514 26.4108 21.4911C26.3974 21.4682 26.3896 21.4433 26.3882 21.4179C26.3867 21.3925 26.3914 21.3671 26.4022 21.3432C26.4129 21.3194 26.4294 21.2975 26.4506 21.2789L27.292 20.5447C27.3128 20.5265 27.3378 20.5119 27.3656 20.5016C27.3934 20.4913 27.4233 20.4856 27.4538 20.4848C27.4842 20.484 27.5146 20.4881 27.5431 20.4969C27.5716 20.5057 27.5977 20.519 27.62 20.5361L30.4072 22.674C30.4303 22.6917 30.4488 22.7132 30.4614 22.737C30.474 22.7608 30.4805 22.7865 30.4805 22.8125C30.4805 22.8385 30.474 22.8641 30.4613 22.888C30.4487 22.9118 30.4303 22.9332 30.4071 22.951Z" fill="#767676"/>
</g>
</g>
<defs>
<filter id="filter0_d_2_590" x="0" y="0" width="48" height="48" filterUnits="userSpaceOnUse" color-interpolation-filters="sRGB">
<feFlood flood-opacity="0" result="BackgroundImageFix"/>
<feColorMatrix in="SourceAlpha" type="matrix" values="0 0 0 0 0 0 0 0 0 0 0 0 0 0 0 0 0 0 127 0" result="hardAlpha"/>
<feOffset dy="4"/>
<feGaussianBlur stdDeviation="2"/>
<feComposite in2="hardAlpha" operator="out"/>
<feColorMatrix type="matrix" values="0 0 0 0 0 0 0 0 0 0 0 0 0 0 0 0 0 0 0.25 0"/>
<feBlend mode="normal" in2="BackgroundImageFix" result="effect1_dropShadow_2_590"/>
<feBlend mode="normal" in="SourceGraphic" in2="effect1_dropShadow_2_590" result="shape"/>
</filter>
<clipPath id="clip0_2_590">
<rect width="16.5" height="18" fill="white" transform="translate(16 11)"/>
</clipPath>
</defs>
</svg>
